<svg width="275" height="272" viewBox="0 0 275 272" fill="none" xmlns="http://www.w3.org/2000/svg">
<g clip-path="url(#clip0_1021_10703)">
<path d="M167.184 249.747C161.126 244.91 151.181 244.471 140.985 244.282C142.341 238.272 141.279 230.539 137.641 225.205C135.554 222.143 130.227 224.959 132.328 228.04C134.869 231.767 135.876 235.743 135.407 239.805C135.031 239.805 134.658 239.842 134.292 239.936C133.949 238.872 133.243 237.981 131.972 237.445C129.334 236.333 126.356 238.066 123.725 240.246C123.614 239.584 123.476 238.917 123.294 238.231C122.74 236.156 119.754 235.537 118.151 236.991C117.277 237.785 116.401 238.58 115.527 239.374C115.567 238.361 115.608 237.347 115.648 236.335C115.791 232.721 109.639 232.726 109.494 236.335C109.398 238.757 109.302 241.181 109.204 243.603C108.972 243.381 108.767 243.141 108.631 242.857C107.972 241.495 108.337 239.108 108.068 237.591C107.682 235.408 107.051 233.328 106.273 231.237C105.284 228.581 101.327 228.567 100.34 231.237C100.008 232.133 99.7179 233.032 99.4335 233.931C99.2037 233.694 98.9852 233.453 98.7385 233.225C97.8626 232.418 96.7945 232.25 95.8508 232.511C96.1409 227.546 97.2297 222.629 99.6181 218.149C101.342 214.912 95.9337 205.012 94.4626 208.371C86.2518 227.127 85.2328 250.251 102.238 256.818C111.172 260.268 122.075 259.887 131.597 259.949C142.957 260.023 167.098 260.392 169.575 258.443C171.017 257.308 169.916 251.931 167.182 249.746L167.184 249.747Z" fill="#E9E9E9"/>
<path d="M154.854 220.463C154.767 220.223 154.641 219.999 154.49 219.788C155.315 217.563 152.812 215.321 150.077 216.463C148.683 217.044 147.31 217.658 145.95 218.289C145.986 216.759 144.914 215.172 142.989 215.399C140.139 215.736 137.485 217.218 135 219.059C134.934 218.947 134.848 218.846 134.765 218.741C136.14 217.718 137.515 216.697 138.892 215.674C141.791 213.518 138.095 210.028 135.164 211.264C135.136 211.276 135.11 211.288 135.081 211.3C135.684 209.781 134.379 208.058 132.648 207.688C134.727 205.447 131.591 202.038 128.683 203.526C128.038 203.856 127.404 204.198 126.769 204.539C127.001 204.324 127.232 204.107 127.466 203.892C129.229 202.258 127.908 199.538 125.912 199.062C125.959 199.017 126.006 198.972 126.055 198.928C128.274 196.834 125.554 193.002 122.755 194.291C123.804 192.018 121.082 188.852 118.49 190.653C118.281 190.798 118.08 190.951 117.872 191.097L117.869 191.092C117.859 191.1 117.85 191.111 117.84 191.119C117.825 191.13 117.81 191.142 117.793 191.152C119.404 188.515 115.831 185.755 112.977 187.794C112.167 188.372 111.38 188.969 110.598 189.57C110.696 189.45 110.796 189.33 110.894 189.209C112.879 186.787 109.012 183.968 106.544 185.444C106.514 184.614 105.981 183.828 105.228 183.295C107.35 180.796 103.276 177.297 100.543 179.68C97.8136 182.058 95.1784 184.518 92.6072 187.029C92.3567 187.102 92.1194 187.212 91.9159 187.378C85.8883 192.295 81.3374 195.897 75.5283 201.03C72.537 203.672 48.5809 235.241 36.2035 245.023C29.4676 250.347 23.0482 252.598 14.4984 254.386C9.90793 255.345 2.02678 256.285 0.122422 260.901C-0.397463 262.16 0.909783 263.145 2.10024 263.27C9.40311 264.047 16.7041 263.97 24.039 263.727C30.3115 263.519 35.9379 263.017 41.7716 260.733C43.7249 259.968 45.65 259.122 47.5242 258.197C47.0495 258.921 46.5164 259.71 45.9175 260.614C44.2862 263.079 43.5968 266.621 47.1136 269.194C50.9939 272.033 55.9742 270.229 59.9317 269.351C67.8374 267.594 71.9851 270.331 79.6666 271.546C82.5994 272.01 85.5586 272.203 88.5046 271.723C92.6355 271.053 96.3048 268.868 100.513 268.586C102.613 268.445 104.546 268.811 106.39 268.323C117.786 268.398 141.808 268.761 144.279 266.815C145.722 265.68 144.62 260.303 141.887 258.118C135.831 253.28 125.884 252.842 115.687 252.653C115.693 252.625 115.699 252.596 115.704 252.568C118.157 251.788 120.527 250.935 122.766 250.057C137.148 244.416 149.414 235.466 158.957 224.184C161.019 221.744 157.436 219.361 154.856 220.463H154.854Z" fill="#E9E9E9"/>
<path d="M132.574 255.421C127.321 255.302 122.077 255.35 116.833 255.536C125.74 251.716 131.787 243.476 130.615 233.895C129.333 223.408 116.756 213.009 104.894 217.506C103.692 217.962 104.22 219.774 105.439 219.312C117.051 214.909 128.854 226.016 128.698 236.238C128.54 246.674 119.832 254.332 108.85 255.761C107.991 255.873 107.95 256.688 108.387 257.186C108.498 257.528 108.803 257.798 109.319 257.765C117.064 257.275 124.81 257.117 132.572 257.291C133.893 257.32 133.893 255.448 132.572 255.419L132.574 255.421Z" fill="#4E535C"/>
<path d="M96.3216 184.097C96.3932 183.837 96.4045 183.595 96.3913 183.362C95.1349 184.531 93.8917 185.714 92.6674 186.911C92.4168 186.983 92.1795 187.093 91.9761 187.26C85.9484 192.177 81.3976 195.778 75.5884 200.911C73.1133 203.1 56.2773 225.093 43.5308 238.159C47.6616 240.72 51.7736 239.078 56.3847 239.338C60.6097 239.575 64.1698 242.661 68.7357 242.951C73.4034 243.251 76.3965 241.492 79.1975 238.224C82.2942 234.61 84.3963 230.434 86.9392 226.503C89.5123 222.526 93.4302 219.303 95.3402 214.99C99.7743 204.974 93.5282 194.296 96.3235 184.095L96.3216 184.097Z" fill="#1F242E"/>
<path d="M144.462 232.014C143.88 232.513 143.39 232.98 142.88 233.378C143.015 230.66 140.273 227.992 138.664 225.918C136.813 223.534 134.823 221.242 132.795 218.978C131.821 217.806 130.802 216.659 129.7 215.555C127.897 213.752 125.136 216.379 126.799 218.203C127.204 218.648 127.605 219.097 128.012 219.542C127.554 219.131 127.099 218.72 126.635 218.313C126.632 218.309 126.628 218.306 126.622 218.302C123.593 214.632 120.51 210.998 117.398 207.386C114.857 203.98 112.073 200.781 108.972 197.767C108.79 197.59 108.598 197.466 108.402 197.37C107.806 196.705 107.221 196.034 106.622 195.371C104.934 193.497 103.267 191.073 101.159 189.342C101.159 189.338 101.159 189.335 101.157 189.33C100.566 187.643 98.9081 186.643 97.2279 186.429C98.1302 184.839 95.6268 182.873 93.8769 184.318C92.1477 185.747 89.2356 187.206 89.3826 189.582C89.5389 192.113 94.3798 196.191 95.9338 198.056C101.076 204.224 106.573 209.751 112.565 215.237C119.528 221.61 126.347 228.115 133.015 234.746C134.426 236.149 136.701 239.579 139.128 239.75C141.993 239.953 145.572 236.195 147.365 234.66C149.294 233.008 146.389 230.364 144.464 232.013L144.462 232.014Z" fill="#06449F"/>
<path d="M140.258 260.918C139.276 260.131 137.745 261.379 138.736 262.173C140.518 263.602 141.621 265.452 141.904 267.537C142.625 267.419 143.217 267.284 143.648 267.135C143.729 267.09 143.812 267.047 143.886 266.997C143.486 264.663 142.252 262.517 140.256 260.918H140.258ZM133.418 263.059C134.895 264.518 135.654 266.25 136.05 268.087C136.762 268.048 137.445 268.005 138.09 267.957C137.638 265.703 136.735 263.58 134.94 261.804C134.044 260.918 132.522 262.172 133.418 263.059Z" fill="#4E535C"/>
<path d="M165.559 252.546C164.577 251.759 163.046 253.007 164.037 253.801C165.819 255.23 166.922 257.079 167.205 259.165C167.926 259.046 168.518 258.912 168.949 258.763C169.03 258.718 169.113 258.675 169.187 258.625C168.787 256.29 167.553 254.147 165.557 252.546H165.559ZM158.717 254.686C160.194 256.146 160.953 257.877 161.349 259.715C162.061 259.675 162.744 259.632 163.389 259.584C162.937 257.33 162.034 255.207 160.239 253.431C159.343 252.546 157.821 253.799 158.717 254.686Z" fill="#4E535C"/>
<path d="M223.281 139.657C221.015 134.506 218.135 129.562 216.758 124.122C216.274 122.207 216.003 120.266 215.854 118.315C221.951 99.8893 220.31 78.5822 207.662 63.3763C198.675 52.5749 184.54 49.2673 171.195 55.6986C158.41 61.8583 154.683 78.5237 152.65 90.4391C151.316 98.2492 151.047 106.149 152.266 113.986C153.04 118.96 154.905 123.801 156.432 128.678C155.464 133.867 151.454 137.97 146.901 141.472C141.375 145.725 135.417 149.552 129.753 153.652C117.731 162.355 106.039 171.423 94.651 180.806C93.4906 181.762 93.3004 183.581 94.0896 184.776C98.4182 191.334 103.436 197.499 109.195 203.074C115.307 208.99 122.576 213.836 128.372 220.027C133.537 225.545 137.67 232.418 144.294 236.665C150.38 240.567 156.517 234.66 161.294 231.296C175.585 221.234 219.642 169.644 221.141 167.691C227.932 158.854 227.576 149.409 223.285 139.655L223.281 139.657Z" fill="#3448C5"/>
<path d="M201.384 262.318C200.393 261.893 198.967 261.946 198.091 261.498C197.113 260.997 196.445 260.275 195.985 259.448C195.88 256.49 195.814 253.529 195.797 250.567C195.759 243.93 195.929 237.292 196.202 230.661C196.531 222.647 196.626 214.426 197.249 206.284C193.616 212.516 189.368 218.935 183.499 223.523C181.297 225.244 178.754 225.399 176.603 224.655C176.717 234.562 176.766 245.343 179.144 255.582C179.626 257.657 184.31 267.317 186.382 269.349C189.852 272.753 197.763 271.981 202.271 271.491C206.089 271.075 207.946 269.433 205.904 266.084C204.902 264.441 203.237 263.11 201.386 262.318H201.384Z" fill="#E9E9E9"/>
<path d="M200.333 265.854C202.25 267.24 203.478 269.105 203.836 271.257C204.616 271.063 205.262 270.791 205.744 270.435C205.217 268.121 203.866 266.038 201.783 264.532C200.758 263.791 199.299 265.108 200.333 265.856V265.854ZM195.07 266.983C196.631 268.378 197.486 270.078 197.982 271.902C198.69 271.864 199.378 271.812 200.033 271.754C199.462 269.488 198.44 267.374 196.52 265.66C195.576 264.816 194.124 266.139 195.07 266.983Z" fill="#4E535C"/>
<path d="M220.356 259.277C219.365 258.852 217.939 258.905 217.063 258.457C216.085 257.956 215.417 257.234 214.957 256.407C214.852 253.449 214.786 250.488 214.769 247.526C214.731 240.889 214.901 234.251 215.174 227.62C215.503 219.606 215.598 211.385 216.221 203.243C212.587 209.475 208.34 215.894 202.47 220.481C200.268 222.201 197.726 222.356 195.574 221.612C195.689 231.519 195.738 242.3 198.115 252.539C198.598 254.614 203.282 264.274 205.354 266.306C208.824 269.71 216.735 268.938 221.243 268.448C225.061 268.032 226.918 266.39 224.876 263.041C223.874 261.398 222.209 260.067 220.357 259.275L220.356 259.277Z" fill="#E9E9E9"/>
<path d="M219.305 262.811C221.222 264.197 222.45 266.062 222.808 268.214C223.588 268.02 224.234 267.749 224.716 267.393C224.189 265.079 222.838 262.995 220.755 261.489C219.73 260.748 218.27 262.065 219.305 262.813V262.811ZM214.042 263.941C215.603 265.335 216.458 267.035 216.954 268.859C217.662 268.821 218.35 268.77 219.005 268.711C218.434 266.445 217.411 264.331 215.492 262.617C214.548 261.773 213.096 263.097 214.042 263.941Z" fill="#4E535C"/>
<path d="M201.344 119.814C201.764 118.012 202.619 116.25 202.38 114.364C201.988 111.263 199.483 109.788 199.705 106.223C199.837 104.12 200.613 102.63 200.28 100.422C199.828 97.4274 198.249 95.8475 198.498 92.729C198.594 91.5273 196.724 90.5784 196.629 91.7749C196.562 92.6173 196.607 93.439 196.714 94.2504C196.23 94.3123 195.772 94.639 195.78 95.1582C195.78 95.2905 195.78 95.4246 195.782 95.557C195.688 95.5794 195.603 95.6172 195.518 95.6619C195.149 94.9398 193.828 94.7971 193.599 95.7495C193.525 96.0504 193.465 96.3495 193.403 96.6504C192.887 96.1415 191.836 96.0968 191.672 96.9581C191.64 97.1231 191.617 97.2899 191.587 97.4549C191.285 96.7312 189.937 96.5919 189.684 97.3999C189.089 97.0733 188.11 97.3157 188.085 98.1529C188.083 98.2492 188.08 98.3437 188.078 98.44C187.833 98.2904 187.526 98.2475 187.236 98.3076C186.84 97.5581 185.352 97.7077 185.286 98.7357C185.254 99.2411 185.23 99.7466 185.199 100.25C185.017 100.216 184.821 100.235 184.629 100.295C184.8 99.6142 184.977 98.9334 185.156 98.2475C185.461 97.0767 183.483 96.5764 183.178 97.7506C181.943 102.489 180.617 107.564 180.844 112.461C180.912 113.9 181.308 114.939 181.342 116.513C181.394 119.022 180.92 119.235 179.984 121.203C179.486 122.248 178.897 123.313 179.311 124.446C179.857 125.936 181.6 126.025 182.25 127.671C182.751 128.941 181.854 130.303 182.901 131.542C185.19 134.255 191.415 131.563 194.154 132.02C196.75 132.453 198.62 133.48 200.839 131.255C201.949 130.143 202.196 128.929 202.069 127.466C201.838 124.781 200.675 122.695 201.346 119.816L201.344 119.814Z" fill="#1F242E"/>
<path d="M182.412 97.6218C182.666 96.4459 180.69 95.9422 180.434 97.1249C180.227 98.0825 180.151 99.0263 180.148 99.965C179.923 100.027 179.726 100.154 179.609 100.367C179.53 100.512 179.464 100.658 179.388 100.804C179.449 100.371 179.507 99.9357 179.569 99.5025C179.697 98.5931 178.062 98.208 177.657 99.0297C177.588 99.1707 177.527 99.3134 177.46 99.4561C177.497 99.2171 177.533 98.9782 177.571 98.7392C177.757 97.5375 176.107 97.1249 175.593 98.2424C175.103 99.3048 174.713 100.388 174.38 101.485C174.504 100.816 174.625 100.147 174.734 99.4767C174.894 98.502 173.472 97.7524 172.86 98.7547C172.588 99.1982 172.357 99.6504 172.138 100.108C171.863 99.5868 171.136 99.2653 170.626 99.7054C170.633 99.3289 170.628 98.9421 170.597 98.5278C170.53 97.5977 168.955 97.2264 168.638 98.141C168.527 95.6327 168.36 93.1915 169.183 90.4512C169.531 89.2873 167.554 88.7905 167.205 89.9544C165.677 95.0413 167.399 100.188 165.732 105.134C164.632 108.403 160.997 111.098 161.23 114.676C161.292 115.637 162.083 116.515 162.176 117.423C162.349 119.137 161.511 120.813 160.974 122.359C160.516 123.677 159.774 124.724 160.092 126.18C160.597 128.491 162.293 128.823 164.447 129.005C168.079 129.313 170.712 131.224 174.103 129.997C176.461 129.142 180.481 129.376 181.892 126.981C182.506 125.938 182.423 124.526 182.351 123.411C182.242 121.721 181.611 120.094 181.628 118.387C181.647 116.536 182.148 114.741 182.41 112.912C183.139 107.827 181.344 102.578 182.414 97.6269L182.412 97.6218Z" fill="#1F242E"/>
<path d="M180.741 69.9297C170.368 70.7892 167.017 85.7768 166.54 93.0797C166.461 94.2831 168.985 94.6304 169.064 93.4321C169.204 91.3141 173.003 88.4277 174.585 86.8598C175.437 86.0157 176.118 85.0685 176.748 84.0886C177.531 85.3435 179.758 85.9246 180.845 84.6662C181.387 84.0387 181.903 83.4009 182.406 82.7579C182.427 82.8662 182.447 82.9745 182.466 83.0846C182.892 85.359 185.866 85.1252 187.036 83.6089C187.465 84.8966 187.895 86.1825 188.324 87.4701C188.656 88.4638 189.573 88.9898 190.536 89.0895C190.636 90.0506 190.694 91.0219 190.666 92.0259C190.581 95.0378 195.708 95.0361 195.793 92.0259C195.799 91.835 195.782 91.6511 195.784 91.462C196.401 91.6545 197.965 92.6052 197.903 91.8505C197.253 84.0731 191.954 69.0013 180.741 69.9297V69.9297Z" fill="#E9E9E9"/>
<path d="M194.932 247.621C194.034 247.153 193.22 248.038 193.452 248.733C192.934 248.743 192.386 249.066 192.342 249.608C192.197 249.603 192.058 249.625 191.928 249.677C191.472 249.254 190.594 249.342 190.253 249.971C189.818 249.426 188.765 249.376 188.488 250.098C188.04 249.847 187.392 249.904 187.055 250.397C187.032 250.431 187.015 250.466 186.995 250.5C186.686 249.869 185.619 249.739 185.175 250.404C185.128 250.474 185.105 250.552 185.066 250.622C184.587 249.914 183.178 250.045 183.178 251.074V251.257C182.905 250.495 181.654 250.557 181.306 251.207C180.826 250.835 179.993 251.074 179.726 251.657C179.503 251.673 179.289 251.736 179.132 251.869C178.599 251.114 177.043 251.613 177.303 252.666C177.691 254.241 177.716 258.749 179.641 259.39C181.136 259.888 184.31 259.046 185.879 258.864C187.84 258.639 189.794 258.365 191.734 258.027C194.723 257.506 196.45 257.793 196.435 254.901C196.426 253.282 196.835 248.607 194.932 247.619V247.621Z" fill="#06449F"/>
<path d="M214.032 244.112C213.134 243.644 212.32 244.53 212.552 245.224C212.034 245.234 211.486 245.558 211.442 246.099C211.297 246.094 211.16 246.116 211.028 246.168C210.572 245.745 209.694 245.833 209.353 246.462C208.918 245.917 207.865 245.865 207.588 246.589C207.14 246.336 206.492 246.395 206.155 246.888C206.132 246.923 206.115 246.957 206.095 246.991C205.786 246.361 204.72 246.23 204.275 246.895C204.228 246.966 204.205 247.043 204.166 247.114C203.687 246.405 202.278 246.536 202.278 247.566V247.748C202.005 246.986 200.755 247.048 200.406 247.698C199.926 247.327 199.093 247.566 198.826 248.148C198.603 248.164 198.389 248.228 198.232 248.36C197.697 247.605 196.143 248.104 196.403 249.158C196.791 250.732 196.816 255.24 198.741 255.881C200.237 256.38 203.41 255.537 204.98 255.355C206.94 255.13 208.894 254.857 210.834 254.518C213.823 253.997 215.551 254.284 215.535 251.392C215.528 249.773 215.935 245.099 214.032 244.11V244.112Z" fill="#06449F"/>
<path d="M188.597 80.9993C187.595 80.2085 187.239 81.8863 188.149 82.7029C187.897 82.7511 187.654 82.8645 187.484 83.0433C187.467 82.9763 187.452 82.9092 187.435 82.8405C187.166 81.7608 185.361 82.0325 185.363 83.0966V84.3017C185.128 84.2588 184.868 84.2897 184.636 84.386C184.192 83.7069 182.867 83.59 182.715 84.5424C182.655 84.9172 182.585 85.3109 182.513 85.7132C182.436 85.2834 182.361 84.8639 182.297 84.4651C182.144 83.5127 180.82 83.6296 180.375 84.3086C180.144 84.2123 179.884 84.1814 179.646 84.2244V83.0193C179.648 81.9551 177.846 81.6835 177.576 82.7631C177.559 82.8302 177.544 82.8972 177.527 82.966C177.358 82.7889 177.115 82.6737 176.862 82.6256C177.772 81.809 177.109 80.5368 176.107 81.3276C171.882 84.6628 166.244 88.7492 166.406 94.3209C166.517 98.1203 169.582 104.103 173.63 105.7C177.149 107.089 180.829 104.137 182.442 101.455C182.457 101.43 182.468 101.4 182.485 101.373C182.515 101.424 182.538 101.481 182.568 101.533C184.18 104.216 187.861 107.166 191.38 105.777C195.427 104.18 198.594 98.1976 198.603 94.3983C198.626 86.4868 192.821 84.3327 188.596 80.9975L188.597 80.9993Z" fill="#E9E9E9"/>
<path d="M183.216 90.3308C183.131 89.1343 181.08 89.1257 181.165 90.3308C181.387 93.4682 181.609 96.6057 181.831 99.7431C181.916 100.94 183.968 100.948 183.883 99.7431C183.66 96.6057 183.438 93.4682 183.216 90.3308Z" fill="#1F242E"/>
<path d="M174.977 90.8569V90.9738C174.977 92.1789 177.028 92.1806 177.028 90.9738V90.8569C177.028 89.6518 174.977 89.65 174.977 90.8569ZM172.733 91.7921C171.413 91.7921 171.411 93.6642 172.733 93.6642C174.056 93.6642 174.056 91.7921 172.733 91.7921ZM169.529 93.4889C168.209 93.4889 168.207 95.361 169.529 95.361C170.852 95.361 170.852 93.4889 169.529 93.4889Z" fill="#1F242E"/>
<path d="M187.733 89.3939H187.669C186.348 89.3939 186.346 91.2661 187.669 91.2661H187.733C189.053 91.2661 189.055 89.3939 187.733 89.3939ZM190.852 91.3056C189.532 91.3056 189.53 93.1778 190.852 93.1778C192.174 93.1778 192.174 91.3056 190.852 91.3056ZM193.864 93.4116C192.544 93.4116 192.542 95.2837 193.864 95.2837C195.186 95.2837 195.186 93.4116 193.864 93.4116Z" fill="#1F242E"/>
<path d="M183.295 78.3209C180.407 78.3088 176.68 78.9105 176.105 81.3276C175.519 83.7963 182.178 88.4346 182.715 88.4105C183.125 88.3916 188.467 84.2278 188.661 81.7867C188.835 79.6016 185.93 78.3329 183.295 78.3209V78.3209Z" fill="#1F242E"/>
<path d="M185.086 82.3918C182.664 82.8852 183.103 85.9161 184.589 87.0834C185.748 86.1086 187.153 84.7453 187.98 83.4732C187.373 82.6566 186.335 82.1374 185.086 82.3918ZM179.816 82.3334C178.514 82.0686 177.444 82.6445 176.853 83.523C177.716 84.735 179.151 86.0072 180.394 86.9527C181.813 85.7407 182.193 82.8182 179.816 82.3334V82.3334Z" fill="#0C163B"/>
<path d="M202.145 176.625C201.692 180.161 200.996 183.651 200.024 187.091C199.894 186.808 199.722 186.551 199.511 186.323C199.675 185.676 199.83 185.028 200.003 184.384C200.813 181.379 196.074 179.329 194.38 182.219C193.499 183.722 192.675 185.21 191.958 186.703C191.549 186.643 191.118 186.651 190.666 186.775C188.955 187.248 187.835 188.298 187.009 189.594C185.501 188.288 182.622 188.491 181.901 190.782C180.905 193.942 180.174 197.124 179.692 200.32C179.347 200.356 179.012 200.449 178.703 200.619C178.703 200.351 178.71 200.085 178.708 199.815C178.691 198.01 175.613 198.004 175.632 199.815C175.689 205.563 174.871 211.084 173.391 216.664C172.249 220.967 171.739 224.622 173.174 228.915C174.063 231.574 175.465 234.254 174.743 237.134C174.261 239.058 172.707 240.656 172.44 242.659C171.995 245.967 177.373 249.17 176.373 251.874C175.96 252.991 177.201 253.753 178.266 253.602C183.27 252.885 188.884 252.579 193.713 251.171C195.416 250.674 196.307 250.17 196.786 248.534C197.317 246.72 196.488 244.757 196.78 242.929C197.117 240.82 198.98 239.348 199.464 237.359C200.265 234.07 196.535 230.911 196.217 227.758C195.708 222.731 198.373 218.106 199.596 213.327C200.547 209.603 200.146 206.7 199.362 203.029C198.34 198.242 201.133 193.942 202.536 189.426C203.842 185.228 204.672 180.956 205.226 176.625C205.456 174.834 202.376 174.849 202.15 176.625H202.145Z" fill="#3448C5"/>
<path d="M220.932 154.852C220.48 158.388 202.107 184.048 201.383 186.34C200.387 189.5 199.656 192.682 199.174 195.878C198.829 195.914 198.494 196.007 198.185 196.177C198.185 195.909 198.193 195.642 198.191 195.372C198.174 193.567 195.096 193.562 195.115 195.372C195.171 201.121 194.354 206.641 192.873 212.222C191.732 216.525 191.221 220.18 192.657 224.472C193.546 227.132 194.947 229.812 194.226 232.692C193.743 234.615 192.189 236.214 191.922 238.217C191.477 241.525 196.855 244.727 195.855 247.432C195.442 248.549 196.684 249.311 197.748 249.159C202.753 248.442 208.366 248.136 213.196 246.728C214.899 246.232 215.79 245.728 216.268 244.091C216.799 242.278 215.97 240.314 216.262 238.487C216.6 236.377 218.462 234.906 218.947 232.917C219.747 229.628 216.017 226.468 215.699 223.315C215.191 218.289 217.856 213.664 219.078 208.885C220.03 205.161 219.628 202.258 218.845 198.587C217.822 193.799 220.615 189.5 222.019 184.984C223.324 180.785 224.153 176.513 224.709 172.183C224.938 170.391 221.164 153.078 220.936 154.856L220.932 154.852Z" fill="#3448C5"/>
<path d="M179.017 64.2444C161.533 69.4174 159.358 90.4941 163.07 104.373C163.383 105.542 165.361 105.047 165.048 103.876C161.629 91.0941 163.24 70.8804 179.564 66.0513C180.814 65.6817 180.279 63.8731 179.017 64.2462V64.2444ZM186.058 58.64C184.653 60.507 183.517 62.4944 182.594 64.5951C182.105 65.7126 184.086 66.1991 184.572 65.092C185.427 63.1442 186.527 61.3133 187.829 59.5838C188.579 58.5885 186.8 57.6515 186.058 58.6383V58.64ZM190.15 63.5809C189.321 64.3321 188.49 65.0817 187.661 65.8329C186.723 66.6822 188.174 68.0059 189.112 67.1567C189.94 66.4054 190.771 65.6559 191.6 64.9046C192.538 64.0553 191.088 62.7316 190.15 63.5809ZM201.493 91.1336C200.295 83.6347 198.809 76.3129 193.563 70.2288C192.747 69.2833 191.304 70.6156 192.112 71.5525C197.11 77.3495 198.381 84.5338 199.515 91.6305C199.705 92.8184 201.681 92.313 201.493 91.1319V91.1336ZM202.666 93.9668H202.713C203.034 93.9668 203.337 93.8 203.533 93.5662C203.569 93.5439 203.61 93.5164 203.672 93.4665C203.815 93.3754 203.957 93.2843 204.098 93.1914C204.38 93.0075 204.663 92.8218 204.944 92.6362C205.505 92.2631 206.061 91.8832 206.614 91.4981C207.059 91.1886 207.281 90.6952 206.982 90.2173C206.733 89.8185 206.017 89.5761 205.578 89.8821C204.853 90.3875 204.121 90.8843 203.38 91.3691C202.862 91.7078 201.781 92.1324 201.677 92.7823C201.583 93.3702 201.934 93.9685 202.666 93.9668V93.9668ZM207.097 97.9311C206.42 97.4429 205.554 97.2452 204.752 96.9753C203.806 96.6572 202.86 96.3392 201.917 96.0229C200.675 95.6051 200.14 97.4137 201.372 97.828C202.096 98.0704 202.817 98.3145 203.54 98.5569C204.107 98.7477 205.181 98.9196 205.648 99.2566C206.673 99.9958 208.133 98.6807 207.099 97.9328L207.097 97.9311Z" fill="#06449F"/>
<path d="M194.312 154.733C193.58 154.555 192.839 154.666 192.105 154.73C191.909 153.475 190.909 152.322 189.102 152.777C188.987 152.806 188.895 152.849 188.795 152.887C188.351 152.043 187.957 151.18 187.639 150.289C187.028 148.588 186.682 146.861 186.522 145.08C187.52 144.542 188.3 143.621 188.449 142.576C188.605 141.477 187.774 140.544 186.68 140.177C186.493 140.116 186.286 140.064 186.073 140.021C187.153 138.36 188.166 136.669 189.07 134.919C189.63 133.836 187.863 132.883 187.3 133.973C186.461 135.594 185.525 137.164 184.538 138.708C183.214 136.039 181.826 133.366 180.786 130.609C180.358 129.476 178.377 129.962 178.808 131.106C179.955 134.148 181.505 137.093 182.958 140.038C181.598 141.295 181.23 143.693 182.703 144.902C183.08 145.211 183.502 145.405 183.941 145.503C183.353 148.591 182.935 151.697 182.781 154.833C182.719 156.081 182.376 158.118 183.014 159.496C182.811 160.527 183.374 161.619 184.57 161.77C184.943 162.862 185.57 164.368 186.893 164.429C186.932 164.431 186.97 164.417 187.009 164.414C187.175 164.414 187.343 164.385 187.495 164.282C188.349 163.702 189.294 162.776 188.665 161.742C188.328 161.189 187.622 160.842 186.923 160.575C187.431 159.678 187.354 158.517 186.294 157.931C185.714 157.611 185.098 157.603 184.563 157.794C184.397 156.135 184.921 153.296 184.992 152.469C185.075 151.512 185.19 150.561 185.32 149.61C185.614 150.628 185.96 151.636 186.412 152.621C187.009 153.925 188.077 156.855 189.816 157.235C190.144 157.307 190.426 157.295 190.684 157.249C190.903 157.443 191.131 157.627 191.378 157.792C192.248 158.376 193.519 158.978 194.303 157.984C194.374 157.893 194.425 157.8 194.455 157.711C194.695 157.505 194.906 157.261 195.07 156.951C195.516 156.102 195.514 155.027 194.312 154.733V154.733Z" fill="#06449F"/>
<path d="M168.363 204.456C168.343 208.125 168.454 211.789 168.697 215.45C168.776 216.647 170.827 216.655 170.748 215.45C170.505 211.789 170.394 208.125 170.415 204.456C170.422 203.251 168.371 203.25 168.363 204.456ZM159.525 192.771C161.328 195.682 163.449 198.388 165.868 200.898C166.742 201.804 168.186 200.477 167.318 199.574C165.012 197.181 163.016 194.599 161.296 191.826C160.646 190.777 158.874 191.719 159.525 192.771ZM152.53 197.716C156.009 200.155 159.829 202.022 163.963 203.354C165.21 203.757 165.747 201.948 164.509 201.549C160.539 200.269 156.901 198.438 153.566 196.1C152.52 195.366 151.497 196.992 152.53 197.716Z" fill="#06449F"/>
<path d="M210.561 175.931C211.327 174.947 209.549 174.012 208.79 174.985C201.755 184.005 194.589 194.21 197.451 205.617C198.228 208.716 199.402 211.905 199.127 215.125C198.843 218.455 196.927 221.239 195.759 224.319C195.028 226.248 194.591 228.12 194.866 230.171C195.011 231.249 195.492 232.253 195.751 233.305C196.654 236.976 195.699 239.336 194.109 242.57C193.574 243.66 195.341 244.614 195.88 243.515C196.955 241.325 198.132 239.053 198.287 236.617C198.466 233.799 196.739 231.347 196.808 228.554C196.948 222.96 201.598 218.718 201.12 212.875C200.6 206.519 197.3 201.004 199.445 194.537C201.649 187.889 206.185 181.54 210.561 175.931V175.931Z" fill="#06449F"/>
<path d="M199.233 120.772C197.302 117.086 200.826 113.03 197.611 109.534C196.761 108.61 195.316 109.939 196.16 110.857C197.937 112.79 196.914 115.3 196.699 117.523C196.554 119.027 196.75 120.356 197.464 121.717C198.033 122.804 199.801 121.855 199.234 120.772H199.233ZM188.598 117.832C188.837 116.654 186.861 116.149 186.62 117.335C185.561 122.546 188.104 127.58 188.08 132.675C188.737 132.599 189.4 132.498 190.05 132.393C189.86 127.526 187.59 122.802 188.599 117.834L188.598 117.832ZM183.101 108.868C182.348 107.89 180.568 108.825 181.33 109.814C184.672 114.151 181.266 119.799 182.945 124.611C183.344 125.754 185.324 125.266 184.923 124.114C183.161 119.065 186.703 113.543 183.101 108.87V108.868Z" fill="#0C163B"/>
<path d="M165.557 114.107C166.271 117.5 164.835 119.582 163.905 122.685C163.296 124.712 163.095 126.765 163.151 128.848C163.562 128.919 163.995 128.969 164.453 129.008C164.709 129.031 164.96 129.061 165.206 129.098C165.112 125.879 165.851 123.057 167.143 120.034C168.096 117.806 168.026 115.948 167.535 113.61C167.286 112.429 165.308 112.929 165.557 114.107V114.107ZM171.095 122.336C169.927 124.822 169.35 127.403 169.433 130.093C170.119 130.253 170.799 130.368 171.492 130.396C171.372 127.939 171.799 125.549 172.865 123.28C173.38 122.185 171.615 121.231 171.095 122.334V122.336Z" fill="#0C163B"/>
<path d="M144.323 65.3619C143.287 70.5933 142.021 75.7748 140.523 80.9133C140.171 82.1253 142.226 82.6411 142.578 81.4308C144.076 76.2923 145.34 71.1125 146.378 65.8794C146.621 64.6554 144.566 64.1293 144.323 65.3619Z" fill="#B6D2FF"/>
<path d="M114.36 25.9866C116.902 17.8361 119.135 9.62205 121.06 1.33232C121.344 0.111729 119.289 -0.410891 119.005 0.81486C117.08 9.10459 114.847 17.3187 112.304 25.4691C111.928 26.676 113.985 27.19 114.36 25.9866ZM122.923 33.8912L118.345 51.4111C118.027 52.6282 120.082 53.1474 120.4 51.9285C121.926 46.0886 123.452 40.2487 124.976 34.4087C125.294 33.1916 123.239 32.6724 122.921 33.8912H122.923ZM99.3149 77.0504C97.8212 86.0227 95.7887 94.878 93.2119 103.642C92.8559 104.852 94.911 105.37 95.267 104.16C97.8438 95.3955 99.8762 86.5401 101.37 77.5679C101.573 76.3439 99.5202 75.8144 99.3149 77.0504V77.0504ZM118.952 92.4144C115.706 104.208 112.757 116.063 110.103 127.978C109.833 129.19 111.849 129.83 112.12 128.606C114.774 116.691 117.724 104.835 120.969 93.0419C121.301 91.8334 119.285 91.199 118.952 92.4144ZM161.773 0.684205C158.248 11.6971 154.943 22.7632 151.855 33.8861C151.518 35.0998 153.573 35.619 153.91 34.4036C156.998 23.2824 160.303 12.2145 163.828 1.20167C164.214 -0.00345361 162.157 -0.517478 161.773 0.684205V0.684205ZM247.399 115.477C243.875 126.49 240.569 137.556 237.482 148.679C237.145 149.892 239.2 150.412 239.537 149.196C242.624 138.075 245.93 127.007 249.454 115.994C249.84 114.791 247.783 114.275 247.399 115.477ZM195.124 21.2624C194.228 24.3414 193.329 27.4187 192.433 30.4977C192.08 31.7097 194.135 32.2254 194.488 31.0151C195.384 27.9361 196.283 24.8588 197.179 21.7799C197.532 20.5679 195.477 20.0521 195.124 21.2624V21.2624ZM227.845 2.78156C226.054 11.979 223.353 20.9289 219.73 29.6656C219.244 30.838 221.305 31.3452 221.785 30.1831C225.408 21.4463 228.109 12.4947 229.9 3.29903C230.139 2.075 228.084 1.54894 227.845 2.78156V2.78156ZM232.047 32.2804C229.702 40.7919 226.741 49.1005 223.149 57.2441C222.637 58.4046 224.697 58.91 225.204 57.7616C228.794 49.6197 231.757 41.3111 234.102 32.7979C234.438 31.5842 232.383 31.065 232.047 32.2804ZM259.307 22.2406C258.219 27.8484 256.708 33.3463 254.77 38.7616C254.342 39.9547 256.401 40.4653 256.825 39.2791C258.763 33.8655 260.272 28.3676 261.363 22.7581C261.6 21.534 259.547 21.008 259.307 22.2406ZM240.479 97.3226C242.873 90.2483 244.692 83.0726 245.949 75.7559C246.16 74.5302 244.105 74.0041 243.894 75.2385C242.637 82.5534 240.816 89.7291 238.424 96.8051C238.019 98.0051 240.075 98.5174 240.479 97.3226ZM269.379 108.652C267.891 114.217 266.401 119.782 264.913 125.346C264.587 126.562 266.642 127.081 266.968 125.864C268.456 120.299 269.946 114.734 271.434 109.169C271.76 107.954 269.705 107.435 269.379 108.652ZM133.878 119.847C132.702 125.095 131.256 130.275 129.538 135.397C129.135 136.597 131.192 137.109 131.593 135.914C133.313 130.791 134.757 125.613 135.933 120.364C136.206 119.142 134.153 118.619 133.878 119.847ZM73.0608 114.485C71.3674 121.408 69.6721 128.329 67.9787 135.252C67.6792 136.473 69.7343 136.994 70.0337 135.77C71.7271 128.847 73.4224 121.925 75.1158 115.002C75.4134 113.783 73.3603 113.261 73.0608 114.485ZM272.915 54.1703C271.221 61.0933 269.526 68.0146 267.833 74.9376C267.533 76.1582 269.588 76.6791 269.888 75.4551C271.581 68.5321 273.277 61.6108 274.97 54.6878C275.269 53.4689 273.214 52.9463 272.915 54.1703Z" fill="#B6D2FF"/>
</g>
<defs>
<clipPath id="clip0_1021_10703">
<rect width="275" height="272" fill="white"/>
</clipPath>
</defs>
</svg>
